Coordinates
version=1
nRows=14
nColumns=63
inDegrees=yes

Units are S.I. units (second, meters, Newtons, ...)
If the header above contains a line with 'inDegrees', this indicates whether rotational values are in degrees (yes) or radians (no).

endheader
time	pelvis_tilt	pelvis_list	pelvis_rotation	pelvis_tx	pelvis_ty	pelvis_tz	hip_flexion_r	hip_adduction_r	hip_rotation_r	knee_angle_r	knee_angle_r_beta	ankle_angle_r	subtalar_angle_r	mtp_angle_r	hip_flexion_l	hip_adduction_l	hip_rotation_l	knee_angle_l	knee_angle_l_beta	ankle_angle_l	subtalar_angle_l	mtp_angle_l	L5_S1_Flex_Ext	L5_S1_Lat_Bending	L5_S1_axial_rotation	L4_L5_Flex_Ext	L4_L5_Lat_Bending	L4_L5_axial_rotation	L3_L4_Flex_Ext	L3_L4_Lat_Bending	L3_L4_axial_rotation	L2_L3_Flex_Ext	L2_L3_Lat_Bending	L2_L3_axial_rotation	L1_L2_Flex_Ext	L1_L2_Lat_Bending	L1_L2_axial_rotation	L1_T12_Flex_Ext	L1_T12_Lat_Bending	L1_T12_axial_rotation	Abs_r3	Abs_r2	Abs_r1	Abs_t1	Abs_t2	neck_flexion	neck_bending	neck_rotation	arm_flex_r	arm_add_r	arm_rot_r	elbow_flex_r	pro_sup_r	wrist_flex_r	wrist_dev_r	arm_flex_l	arm_add_l	arm_rot_l	elbow_flex_l	pro_sup_l	wrist_flex_l	wrist_dev_l
1.285714	-5.496925	-0.539369	92.109457	0.182973	1.109962	0.139668	-1.203325	-6.718733	-11.107167	9.359682	0.163357	35.659453	14.325944	0.000000	0.274166	7.126797	9.036318	8.856666	0.154578	25.078339	-15.237103	0.000000	0.088427	-0.892928	-0.518359	0.164218	-1.187595	-0.550757	0.145277	-2.171066	-0.550757	0.101063	-2.171066	-0.453564	0.082113	-1.820860	-0.421167	0.050527	-1.383146	-0.388769	0.631626	-10.100985	-2.882958	0.000000	0.000000	12.452528	5.965185	-9.821740	68.212648	-53.719453	51.261783	109.262118	51.162621	-1.921691	29.687406	57.324524	-60.606881	22.750151	113.597403	90.394069	5.766329	9.790418
1.303571	-5.492436	-0.533272	92.076757	0.182813	1.110242	0.138368	-1.214209	-6.686260	-11.090813	9.430642	0.164596	35.895807	14.348190	0.000000	0.057879	7.100408	8.995280	8.605257	0.150190	24.907228	-15.295126	0.000000	0.088507	-0.901478	-0.530642	0.164366	-1.198965	-0.563807	0.145408	-2.191853	-0.563807	0.101155	-2.191853	-0.464311	0.082188	-1.838293	-0.431146	0.050573	-1.396389	-0.397981	0.632197	-10.197696	-2.951270	0.000000	0.000000	13.166197	5.916120	-10.764764	78.160225	-54.966573	57.397015	108.247226	49.182518	-3.861284	28.242167	67.031625	-62.457792	26.896406	112.716530	90.138336	3.612878	9.951961
1.321429	-5.465263	-0.597426	92.045318	0.182634	1.110274	0.137015	-1.126933	-6.629158	-11.042896	9.550784	0.166693	36.185653	14.317289	0.000000	-0.071579	7.056778	8.989942	8.396899	0.146554	24.812347	-15.390184	0.000000	0.092274	-0.908560	-0.499910	0.171361	-1.208385	-0.531155	0.151596	-2.209073	-0.531155	0.105459	-2.209073	-0.437421	0.085685	-1.852736	-0.406177	0.052725	-1.407360	-0.374933	0.659101	-10.277813	-2.780350	0.000000	0.000000	14.153048	5.657668	-12.092384	88.520876	-55.498494	63.785321	105.857348	48.685970	-5.720514	25.958411	77.447020	-63.036929	31.840017	110.486916	89.742205	1.111588	9.943348
1.339286	-5.412918	-0.733276	91.979114	0.182430	1.110105	0.135641	-0.932762	-6.551162	-10.946788	9.723845	0.169713	36.492591	14.238226	0.000000	-0.121633	6.995230	8.992195	8.209222	0.143278	24.772120	-15.519693	0.000000	0.100631	-0.912608	-0.419350	0.186882	-1.213768	-0.445559	0.165327	-2.218915	-0.445559	0.115011	-2.218915	-0.366931	0.093446	-1.860990	-0.340722	0.057501	-1.413630	-0.314512	0.718798	-10.323603	-2.332298	0.000000	0.000000	15.370955	5.215082	-13.754519	98.862416	-55.237516	69.883518	102.132084	49.827174	-7.268998	23.148174	88.298689	-62.264749	37.440333	106.890426	89.293941	-1.862532	9.806016
1.357143	-5.309011	-0.919015	91.866892	0.182135	1.109794	0.134326	-0.655167	-6.430739	-10.805752	9.940819	0.173500	36.770285	14.122572	0.000000	-0.105447	6.893774	8.993200	8.052034	0.140535	24.781558	-15.676920	0.000000	0.111517	-0.907173	-0.292503	0.207098	-1.206540	-0.310784	0.183211	-2.205699	-0.310784	0.127453	-2.205699	-0.255940	0.103555	-1.849906	-0.237659	0.063721	-1.405210	-0.219377	0.796555	-10.262118	-1.626813	0.000000	0.000000	16.720346	4.549656	-15.600663	108.843296	-54.120302	75.370910	97.177074	52.183097	-8.480870	20.219576	99.265284	-60.187050	43.519572	101.990427	88.960679	-5.314314	9.449391
1.375000	-5.149562	-1.130081	91.697611	0.181738	1.109412	0.133129	-0.325836	-6.264313	-10.595846	10.183105	0.177729	36.982654	13.953310	0.000000	-0.049344	6.749199	8.972290	7.916869	0.138175	24.817460	-15.850571	0.000000	0.123625	-0.890684	-0.124021	0.229584	-1.184610	-0.131772	0.203104	-2.165610	-0.131772	0.141291	-2.165610	-0.108518	0.114798	-1.816283	-0.100767	0.070639	-1.379670	-0.093016	0.883042	-10.075599	-0.689768	0.000000	0.000000	18.075871	3.759699	-17.481119	118.193007	-52.194328	79.951399	91.104781	54.734185	-9.462238	17.437438	109.999872	-56.909201	49.837522	95.943935	88.835324	-9.126258	8.905484
1.392857	-4.952003	-1.361804	91.457195	0.181302	1.109001	0.132081	0.049135	-6.070941	-10.307978	10.442912	0.182263	37.111700	13.739669	0.000000	0.035901	6.575319	8.902972	7.786645	0.135903	24.847872	-16.020317	0.000000	0.137399	-0.866444	0.081108	0.255164	-1.152370	0.086177	0.225733	-2.106672	0.086177	0.157033	-2.106672	0.070969	0.127589	-1.766852	0.065900	0.078510	-1.342122	0.060831	0.981427	-9.801387	0.451098	0.000000	0.000000	19.328339	2.933659	-19.379293	126.680665	-49.500042	83.415040	84.035383	56.947467	-10.228129	14.815636	120.169312	-52.645439	56.171552	89.021295	88.797566	-13.238995	8.287904
1.410714	-4.715578	-1.604273	91.194290	0.180798	1.108623	0.131224	0.443278	-5.845541	-9.965422	10.702043	0.186786	37.134410	13.446767	0.000000	0.156610	6.370007	8.792385	7.690145	0.134218	24.865335	-16.153597	0.000000	0.151505	-0.835986	0.308067	0.281359	-1.111861	0.327321	0.248907	-2.032616	0.327321	0.173155	-2.032616	0.269558	0.140687	-1.704742	0.250304	0.086570	-1.294942	0.231050	1.082182	-9.456838	1.713375	0.000000	0.000000	20.370013	2.117814	-21.330196	134.127334	-46.185750	85.655823	76.216032	58.580665	-10.856797	12.314922	129.463371	-47.582357	62.190040	81.437242	88.768125	-17.316776	7.483824
1.428571	-4.457099	-1.870632	90.904863	0.180295	1.108285	0.130530	0.858058	-5.602979	-9.577269	10.936360	0.190875	37.051987	13.111049	0.000000	0.316776	6.146125	8.634627	7.608775	0.132798	24.841198	-16.258837	0.000000	0.168994	-0.803522	0.550491	0.313839	-1.068684	0.584897	0.277641	-1.953683	0.584897	0.193144	-1.953683	0.481680	0.156928	-1.638542	0.447274	0.096563	-1.244655	0.412869	1.207110	-9.089600	3.061668	0.000000	0.000000	21.171057	1.378735	-23.359492	140.304267	-42.374567	86.476773	67.922952	60.039851	-11.239138	9.982666	137.649570	-41.978279	67.644470	73.485735	88.734639	-21.148131	6.526058
1.446429	-4.191338	-2.159800	90.628318	0.179777	1.108043	0.130011	1.284101	-5.356517	-9.168110	11.138822	0.194409	36.863233	12.712359	0.000000	0.525559	5.915395	8.430485	7.559967	0.131946	24.777727	-16.290554	0.000000	0.188644	-0.772787	0.787738	0.350331	-1.027807	0.836971	0.309923	-1.878955	0.836971	0.215601	-1.878955	0.689270	0.175175	-1.575867	0.640037	0.107791	-1.197047	0.590803	1.347464	-8.741922	4.381160	0.000000	0.000000	21.730363	0.766598	-25.495171	144.948767	-38.259304	85.124909	59.536358	62.977224	-11.284303	7.642938	144.453719	-36.112624	72.057317	65.538932	88.710029	-24.308162	5.552228
1.464286	-3.909473	-2.469889	90.381567	0.179194	1.107896	0.129619	1.706494	-5.095776	-8.732007	11.290325	0.197053	36.576404	12.258497	0.000000	0.777758	5.672103	8.216874	7.541046	0.131616	24.680153	-16.284353	0.000000	0.210766	-0.743858	1.010749	0.391414	-0.989331	1.073921	0.346268	-1.808616	1.073921	0.240885	-1.808616	0.884406	0.195718	-1.516875	0.821234	0.120432	-1.152236	0.758062	1.505483	-8.414668	5.621484	0.000000	0.000000	22.037711	0.309971	-27.812400	148.210212	-34.126643	82.964236	51.349880	66.102848	-11.319655	5.045390	149.781331	-30.254137	75.405027	57.812271	88.673369	-26.877698	4.489779
1.482143	-3.615033	-2.793474	90.180577	0.178501	1.107820	0.129326	2.110745	-4.827435	-8.304890	11.381860	0.198651	36.219595	11.771753	0.000000	1.068035	5.421834	8.025001	7.558775	0.131926	24.560349	-16.253823	0.000000	0.234158	-0.717182	1.203588	0.434854	-0.953852	1.278813	0.384698	-1.743756	1.278813	0.267619	-1.743756	1.053140	0.217439	-1.462477	0.977916	0.133798	-1.110915	0.902691	1.672565	-8.112905	6.693998	0.000000	0.000000	22.165348	0.011843	-30.308962	150.184882	-30.194833	80.213440	43.666217	69.425103	-11.318272	2.407074	153.538007	-24.711743	77.515507	50.595188	88.617867	-28.805647	3.331685
1.500000	-3.303429	-3.114077	90.044920	0.177614	1.107761	0.129116	2.479716	-4.556000	-7.953357	11.421506	0.199343	35.823946	11.328315	0.000000	1.384123	5.165229	7.891991	7.623708	0.133059	24.443640	-16.218761	0.000000	0.257273	-0.689581	1.348556	0.477782	-0.917143	1.432841	0.422674	-1.676648	1.432841	0.294038	-1.676648	1.179987	0.238904	-1.406194	1.095702	0.147006	-1.068161	1.011417	1.837677	-7.800681	7.500265	0.000000	0.000000	22.197898	-0.171498	-32.829938	151.294785	-26.618739	77.998930	36.706871	71.743199	-11.669872	-0.159437	155.666488	-19.787784	78.318976	44.153774	88.520899	-30.186759	2.146473
1.517857	-2.996799	-3.415844	89.987137	0.176577	1.107701	0.128978	2.800923	-4.296295	-7.650503	11.419937	0.199315	35.415426	10.873586	0.000000	1.707913	4.921719	7.818892	7.731950	0.134948	24.335959	-16.167064	0.000000	0.279181	-0.663592	1.435045	0.518467	-0.882577	1.524735	0.458666	-1.613457	1.524735	0.319076	-1.613457	1.255664	0.259247	-1.353196	1.165974	0.159524	-1.027904	1.076284	1.994162	-7.506683	7.981289	0.000000	0.000000	22.205103	-0.200154	-35.279897	151.671537	-23.623942	75.555235	30.926514	73.303523	-12.320721	-2.064207	156.414414	-15.732418	78.005824	38.725897	88.387859	-31.140034	1.036719
